<?xml version="1.0" encoding="UTF-8"?>
<svg id="_레이어_1" data-name="레이어 1" xmlns="http://www.w3.org/2000/svg" viewBox="0 0 1200 350.87">
  <defs>
    <style>
      .cls-1 {
        fill: #c32927;
      }

      .cls-2 {
        fill: #f50000;
      }
    </style>
  </defs>
  <g>
    <path class="cls-2" d="M551.4,0c9.98,0,18.19,2.26,24.63,6.78,6.43,4.52,9.65,11.91,9.65,22.16v153.47c0,10.25-3.22,17.64-9.65,22.16-6.44,4.52-14.65,6.78-24.63,6.78h-106.6c-9.99,0-18.2-2.26-24.63-6.78-6.44-4.52-9.65-11.91-9.65-22.16V28.94c0-10.25,3.21-17.64,9.65-22.16,6.43-4.52,14.64-6.78,24.63-6.78h106.6ZM463.53,47.94v115.48h69.15V47.94h-69.15Z"/>
    <path class="cls-2" d="M136.86,81.71c6.63,0,12.26.8,16.88,2.41,4.62,1.61,8.39,3.72,11.3,6.33,2.91,2.62,4.98,5.68,6.18,9.2,1.2,3.52,1.81,7.19,1.81,11v71.76c0,10.25-3.42,17.64-10.25,22.16-6.84,4.52-15.48,6.78-25.93,6.78H0l18.99-47.94h100.38l.3-33.77H47.01c-6.63,0-12.21-.75-16.73-2.26-4.52-1.51-8.24-3.57-11.16-6.18-2.92-2.61-4.98-5.68-6.18-9.2-1.21-3.51-1.81-7.18-1.81-11V28.95c0-10.25,3.36-17.64,10.1-22.16C27.97,2.26,36.56,0,47.01,0h131.63l-18.69,47.94h-95.45v33.77h72.36Z"/>
    <path class="cls-2" d="M1200,0l-18.7,47.94h-45.23v163.11h-57.28V64.31l40.7-16.37h-100.4l18.69-47.94h162.21Z"/>
    <path class="cls-2" d="M377.08,11.31c-5.93-7.33-15.83-11.1-29.7-11.31h-136.84l-18.71,47.94h68.1l-49.14,22.61v140.8h57.29v-57.59h78.39c14.27,0,24.42-3.67,30.45-11.01,6.03-7.33,9.05-17.64,9.05-30.9V41.61c0-12.86-2.97-22.96-8.9-30.3ZM329.9,86.53c0,4.22-.2,7.59-.6,10.1-.41,2.51-1.2,4.42-2.41,5.73-1.21,1.31-2.82,2.21-4.82,2.71-2.01.5-4.53.75-7.54.75h-46.43v-57.89h46.43c3.62,0,6.43.35,8.44,1.05,2.01.71,3.57,1.86,4.67,3.47,1.1,1.61,1.76,3.77,1.96,6.48.2,2.71.3,6.08.3,10.1v17.49Z"/>
    <path class="cls-2" d="M789.97,7.25c-6.01-4.83-14.26-7.25-24.77-7.25h-141.56l-18.68,47.94h63.98s-45.04,22.41-45.04,22.41v141h112.87c8.26,0,16.14-2.01,23.64-6.04,7.5-4.02,14.12-9.36,19.84-16,5.72-6.64,10.27-14.34,13.65-23.1,3.38-8.76,5.07-17.76,5.07-27.02V28.98c0-9.66-3-16.91-9.01-21.74ZM745.5,128.63c0,4.43-.89,8.71-2.67,12.83-1.79,4.13-4.18,7.8-7.18,11.02-3,3.22-6.47,5.84-10.41,7.85-3.94,2.02-8.07,3.02-12.38,3.02h-35.47V47.94h68.12v80.69Z"/>
    <path class="cls-2" d="M965.68,0c9.98,0,18.19,2.26,24.63,6.78,6.43,4.52,9.65,11.91,9.65,22.16v153.47c0,10.25-3.22,17.64-9.65,22.16-6.44,4.52-14.65,6.78-24.63,6.78h-106.6c-9.99,0-18.2-2.26-24.63-6.78-6.44-4.52-9.65-11.91-9.65-22.16V28.94c0-10.25,3.21-17.64,9.65-22.16,6.43-4.52,14.64-6.78,24.63-6.78h106.6ZM877.8,47.94v115.48h69.15V47.94h-69.15Z"/>
  </g>
  <g>
    <g>
      <path d="M583.45,335.04h35.98l-6.13,15.72h-48.63l.1-69.29h54.76l-6.23,15.72h-29.85v9.88h28.07l-4.94,15.72h-23.13v12.26Z"/>
      <path d="M765.72,350.76v-69.19h18.78v69.19h-18.78Z"/>
      <path d="M687.21,281.56v69.19h-22.14l-19.36-36.28v36.28h-17.6v-56.05h7.04l-7.04-13.15h20.57l20.94,39.74v-39.74h17.6Z"/>
      <path d="M755.61,281.56v69.19h-22.14l-19.36-36.28v36.28h-17.6v-56.05h7.04l-7.04-13.15h20.57l20.94,39.74v-39.74h17.6Z"/>
      <path d="M558.3,281.56l-6.13,15.72h-14.83v53.38h-18.78v-48.04l13.34-5.34h-32.92l6.13-15.72h53.18Z"/>
      <path d="M837.79,308.33c2.18,0,4.02.26,5.54.79,1.52.53,2.75,1.22,3.71,2.08.96.86,1.63,1.86,2.03,3.02.4,1.15.59,2.36.59,3.61v23.54c0,3.36-1.12,5.79-3.36,7.27-2.24,1.48-5.08,2.23-8.51,2.23h-44.9l6.23-15.73h32.93l.1-11.08h-23.84c-2.18,0-4.01-.25-5.49-.74-1.48-.5-2.7-1.17-3.66-2.03-.96-.86-1.63-1.86-2.03-3.02-.4-1.15-.59-2.36-.59-3.61v-23.64c0-3.36,1.1-5.79,3.31-7.27,2.21-1.48,5.03-2.23,8.46-2.23h43.18l-6.13,15.73h-31.31v11.08h23.74Z"/>
    </g>
    <g>
      <path d="M256.86,335.05h35.99l-6.13,15.72h-48.65l.1-69.32h54.78l-6.23,15.72h-29.86v9.89h28.08l-4.94,15.72h-23.14v12.26Z"/>
      <path d="M228.28,281.55v69.22h-22.15l-19.37-36.29v36.29h-17.61v-56.07h7.04l-7.04-13.15h20.57l20.94,39.75v-39.75h17.61Z"/>
      <path d="M341.68,308.32c2.18,0,4.02.26,5.54.79,1.52.53,2.75,1.22,3.71,2.08.96.86,1.63,1.86,2.03,3.02.4,1.15.59,2.36.59,3.61v23.55c0,3.36-1.12,5.79-3.36,7.27-2.24,1.48-5.08,2.23-8.51,2.23h-44.91l6.23-15.73h32.94l.1-11.08h-23.85c-2.18,0-4.01-.25-5.49-.74-1.48-.5-2.71-1.17-3.66-2.03-.96-.86-1.63-1.86-2.03-3.02-.4-1.15-.59-2.36-.59-3.61v-23.65c0-3.36,1.1-5.79,3.31-7.27,2.21-1.48,5.03-2.23,8.46-2.23h43.2l-6.13,15.73h-31.32v11.08h23.75Z"/>
      <path d="M403.21,308.32c2.18,0,4.02.26,5.54.79,1.52.53,2.75,1.22,3.71,2.08.96.86,1.63,1.86,2.03,3.02.4,1.15.59,2.36.59,3.61v23.55c0,3.36-1.12,5.79-3.36,7.27-2.24,1.48-5.08,2.23-8.51,2.23h-44.91l6.23-15.73h32.94l.1-11.08h-23.85c-2.18,0-4.01-.25-5.49-.74-1.48-.5-2.71-1.17-3.66-2.03-.96-.86-1.63-1.86-2.03-3.02-.4-1.15-.59-2.36-.59-3.61v-23.65c0-3.36,1.1-5.79,3.31-7.27,2.21-1.48,5.03-2.23,8.46-2.23h43.2l-6.13,15.73h-31.32v11.08h23.75Z"/>
      <path d="M37.29,297.17v13.64h28.08l-4.94,15.72h-23.13v24.22h-18.78v-46.17l16.11-7.41h-16.02v-15.72h54.77l-6.23,15.72h-29.86Z"/>
      <path d="M78.98,350.76v-69.2h18.78v69.2h-18.78Z"/>
      <path d="M163.19,281.55l-6.13,15.72h-14.83v53.39h-18.78v-48.05l13.35-5.34h-32.92l6.13-15.72h53.19Z"/>
    </g>
    <g>
      <path d="M1145.06,297.33v13.55h28.35l-4.99,15.61h-23.36v24.05h-18.97v-45.84l16.27-7.36h-16.17v-15.61h55.3l-6.29,15.61h-30.14Z"/>
      <path d="M997.53,308.24v32.85c0,3.34-1.04,5.76-3.12,7.23-2.08,1.47-4.73,2.21-7.96,2.21h-35c-3.23,0-5.88-.74-7.96-2.21-2.08-1.47-3.12-3.88-3.12-7.23v-49.97c0-3.15.99-5.51,2.98-7.08,1.99-1.57,4.69-2.36,8.1-2.36h46.45l-5.86,15.64h-33.98v37.57h22.99v-11.02h-15.08l4.66-15.64h26.9Z"/>
      <path d="M1121.72,334.92l-6.19,15.61h-46.61v-68.71h18.97v53.1h33.84Z"/>
      <path d="M1049.98,281.68c3.26,0,5.94.74,8.04,2.21,2.1,1.48,3.15,3.89,3.15,7.23v50.07c0,3.35-1.05,5.76-3.15,7.23-2.1,1.48-4.78,2.21-8.04,2.21h-34.78c-3.26,0-5.94-.74-8.04-2.21-2.1-1.48-3.15-3.89-3.15-7.23v-50.07c0-3.34,1.05-5.75,3.15-7.23,2.1-1.48,4.78-2.21,8.04-2.21h34.78ZM1021.31,297.32v37.68h22.56v-37.68h-22.56Z"/>
    </g>
    <circle class="cls-1" cx="464.44" cy="316.16" r="17.79"/>
    <circle class="cls-1" cx="902.08" cy="316.16" r="17.91"/>
  </g>
</svg> 